<mxfile host="app.diagrams.net" modified="2022-12-01T21:52:01.682Z" agent="5.0 (Windows NT 10.0; Win64; x64) AppleWebKit/537.36 (KHTML, like Gecko) Chrome/107.0.0.0 Safari/537.36" etag="RNnWE_XPeKTaQIXRldQn" version="20.6.0" type="github">
  <diagram id="R2lEEEUBdFMjLlhIrx00" name="Page-1">
    <mxGraphModel dx="1886" dy="927" grid="0" gridSize="10" guides="1" tooltips="1" connect="1" arrows="1" fold="1" page="1" pageScale="1" pageWidth="1700" pageHeight="1100" math="0" shadow="0" extFonts="Permanent Marker^https://fonts.googleapis.com/css?family=Permanent+Marker">
      <root>
        <mxCell id="0" />
        <mxCell id="1" parent="0" />
        <mxCell id="C-vyLk0tnHw3VtMMgP7b-23" value="department" style="shape=table;startSize=30;container=1;collapsible=1;childLayout=tableLayout;fixedRows=1;rowLines=0;fontStyle=1;align=center;resizeLast=1;fillColor=#d5e8d4;strokeColor=#82b366;" parent="1" vertex="1">
          <mxGeometry x="800" y="320" width="280" height="100" as="geometry" />
        </mxCell>
        <mxCell id="C-vyLk0tnHw3VtMMgP7b-24" value="" style="shape=partialRectangle;collapsible=0;dropTarget=0;pointerEvents=0;fillColor=none;points=[[0,0.5],[1,0.5]];portConstraint=eastwest;top=0;left=0;right=0;bottom=1;" parent="C-vyLk0tnHw3VtMMgP7b-23" vertex="1">
          <mxGeometry y="30" width="280" height="30" as="geometry" />
        </mxCell>
        <mxCell id="C-vyLk0tnHw3VtMMgP7b-25" value="PK" style="shape=partialRectangle;overflow=hidden;connectable=0;fillColor=#d5e8d4;top=0;left=0;bottom=0;right=0;fontStyle=1;strokeColor=#82b366;" parent="C-vyLk0tnHw3VtMMgP7b-24" vertex="1">
          <mxGeometry width="30" height="30" as="geometry">
            <mxRectangle width="30" height="30" as="alternateBounds" />
          </mxGeometry>
        </mxCell>
        <mxCell id="C-vyLk0tnHw3VtMMgP7b-26" value="department_id" style="shape=partialRectangle;overflow=hidden;connectable=0;fillColor=#d5e8d4;top=0;left=0;bottom=0;right=0;align=left;spacingLeft=6;fontStyle=1;strokeColor=#82b366;" parent="C-vyLk0tnHw3VtMMgP7b-24" vertex="1">
          <mxGeometry x="30" width="130" height="30" as="geometry">
            <mxRectangle width="130" height="30" as="alternateBounds" />
          </mxGeometry>
        </mxCell>
        <mxCell id="rV2XExk1Q2oEf46ezu_Y-1" value="int" style="shape=partialRectangle;overflow=hidden;connectable=0;fillColor=#d5e8d4;top=0;left=0;bottom=0;right=0;align=left;spacingLeft=6;fontStyle=0;strokeColor=#82b366;" parent="C-vyLk0tnHw3VtMMgP7b-24" vertex="1">
          <mxGeometry x="160" width="120" height="30" as="geometry">
            <mxRectangle width="120" height="30" as="alternateBounds" />
          </mxGeometry>
        </mxCell>
        <mxCell id="C-vyLk0tnHw3VtMMgP7b-27" value="" style="shape=partialRectangle;collapsible=0;dropTarget=0;pointerEvents=0;fillColor=none;points=[[0,0.5],[1,0.5]];portConstraint=eastwest;top=0;left=0;right=0;bottom=0;" parent="C-vyLk0tnHw3VtMMgP7b-23" vertex="1">
          <mxGeometry y="60" width="280" height="30" as="geometry" />
        </mxCell>
        <mxCell id="C-vyLk0tnHw3VtMMgP7b-28" value="" style="shape=partialRectangle;overflow=hidden;connectable=0;fillColor=none;top=0;left=0;bottom=0;right=0;" parent="C-vyLk0tnHw3VtMMgP7b-27" vertex="1">
          <mxGeometry width="30" height="30" as="geometry">
            <mxRectangle width="30" height="30" as="alternateBounds" />
          </mxGeometry>
        </mxCell>
        <mxCell id="C-vyLk0tnHw3VtMMgP7b-29" value="name" style="shape=partialRectangle;overflow=hidden;connectable=0;fillColor=none;top=0;left=0;bottom=0;right=0;align=left;spacingLeft=6;" parent="C-vyLk0tnHw3VtMMgP7b-27" vertex="1">
          <mxGeometry x="30" width="130" height="30" as="geometry">
            <mxRectangle width="130" height="30" as="alternateBounds" />
          </mxGeometry>
        </mxCell>
        <mxCell id="rV2XExk1Q2oEf46ezu_Y-2" value="varcar(40)" style="shape=partialRectangle;overflow=hidden;connectable=0;fillColor=none;top=0;left=0;bottom=0;right=0;align=left;spacingLeft=6;" parent="C-vyLk0tnHw3VtMMgP7b-27" vertex="1">
          <mxGeometry x="160" width="120" height="30" as="geometry">
            <mxRectangle width="120" height="30" as="alternateBounds" />
          </mxGeometry>
        </mxCell>
        <mxCell id="rV2XExk1Q2oEf46ezu_Y-3" value="employee" style="shape=table;startSize=30;container=1;collapsible=1;childLayout=tableLayout;fixedRows=1;rowLines=0;fontStyle=1;align=center;resizeLast=1;fillColor=#dae8fc;strokeColor=#6c8ebf;" parent="1" vertex="1">
          <mxGeometry x="440" y="200" width="280" height="220" as="geometry" />
        </mxCell>
        <mxCell id="rV2XExk1Q2oEf46ezu_Y-4" value="" style="shape=partialRectangle;collapsible=0;dropTarget=0;pointerEvents=0;fillColor=none;points=[[0,0.5],[1,0.5]];portConstraint=eastwest;top=0;left=0;right=0;bottom=1;" parent="rV2XExk1Q2oEf46ezu_Y-3" vertex="1">
          <mxGeometry y="30" width="280" height="30" as="geometry" />
        </mxCell>
        <mxCell id="rV2XExk1Q2oEf46ezu_Y-5" value="PK" style="shape=partialRectangle;overflow=hidden;connectable=0;fillColor=#dae8fc;top=0;left=0;bottom=0;right=0;fontStyle=1;strokeColor=#6c8ebf;" parent="rV2XExk1Q2oEf46ezu_Y-4" vertex="1">
          <mxGeometry width="30" height="30" as="geometry">
            <mxRectangle width="30" height="30" as="alternateBounds" />
          </mxGeometry>
        </mxCell>
        <mxCell id="rV2XExk1Q2oEf46ezu_Y-6" value="employee_id" style="shape=partialRectangle;overflow=hidden;connectable=0;fillColor=#dae8fc;top=0;left=0;bottom=0;right=0;align=left;spacingLeft=6;fontStyle=1;strokeColor=#6c8ebf;" parent="rV2XExk1Q2oEf46ezu_Y-4" vertex="1">
          <mxGeometry x="30" width="130" height="30" as="geometry">
            <mxRectangle width="130" height="30" as="alternateBounds" />
          </mxGeometry>
        </mxCell>
        <mxCell id="rV2XExk1Q2oEf46ezu_Y-7" value="int" style="shape=partialRectangle;overflow=hidden;connectable=0;fillColor=#dae8fc;top=0;left=0;bottom=0;right=0;align=left;spacingLeft=6;fontStyle=0;strokeColor=#6c8ebf;" parent="rV2XExk1Q2oEf46ezu_Y-4" vertex="1">
          <mxGeometry x="160" width="120" height="30" as="geometry">
            <mxRectangle width="120" height="30" as="alternateBounds" />
          </mxGeometry>
        </mxCell>
        <mxCell id="rV2XExk1Q2oEf46ezu_Y-12" style="shape=partialRectangle;collapsible=0;dropTarget=0;pointerEvents=0;fillColor=none;points=[[0,0.5],[1,0.5]];portConstraint=eastwest;top=0;left=0;right=0;bottom=1;" parent="rV2XExk1Q2oEf46ezu_Y-3" vertex="1">
          <mxGeometry y="60" width="280" height="30" as="geometry" />
        </mxCell>
        <mxCell id="rV2XExk1Q2oEf46ezu_Y-13" value="FK" style="shape=partialRectangle;overflow=hidden;connectable=0;fillColor=#d5e8d4;top=0;left=0;bottom=0;right=0;fontStyle=1;strokeColor=#82b366;" parent="rV2XExk1Q2oEf46ezu_Y-12" vertex="1">
          <mxGeometry width="30" height="30" as="geometry">
            <mxRectangle width="30" height="30" as="alternateBounds" />
          </mxGeometry>
        </mxCell>
        <mxCell id="rV2XExk1Q2oEf46ezu_Y-14" value="department_id" style="shape=partialRectangle;overflow=hidden;connectable=0;fillColor=#d5e8d4;top=0;left=0;bottom=0;right=0;align=left;spacingLeft=6;fontStyle=1;strokeColor=#82b366;" parent="rV2XExk1Q2oEf46ezu_Y-12" vertex="1">
          <mxGeometry x="30" width="130" height="30" as="geometry">
            <mxRectangle width="130" height="30" as="alternateBounds" />
          </mxGeometry>
        </mxCell>
        <mxCell id="rV2XExk1Q2oEf46ezu_Y-15" value="int" style="shape=partialRectangle;overflow=hidden;connectable=0;fillColor=#d5e8d4;top=0;left=0;bottom=0;right=0;align=left;spacingLeft=6;fontStyle=0;strokeColor=#82b366;" parent="rV2XExk1Q2oEf46ezu_Y-12" vertex="1">
          <mxGeometry x="160" width="120" height="30" as="geometry">
            <mxRectangle width="120" height="30" as="alternateBounds" />
          </mxGeometry>
        </mxCell>
        <mxCell id="rV2XExk1Q2oEf46ezu_Y-8" value="" style="shape=partialRectangle;collapsible=0;dropTarget=0;pointerEvents=0;fillColor=none;points=[[0,0.5],[1,0.5]];portConstraint=eastwest;top=0;left=0;right=0;bottom=0;" parent="rV2XExk1Q2oEf46ezu_Y-3" vertex="1">
          <mxGeometry y="90" width="280" height="30" as="geometry" />
        </mxCell>
        <mxCell id="rV2XExk1Q2oEf46ezu_Y-9" value="" style="shape=partialRectangle;overflow=hidden;connectable=0;fillColor=none;top=0;left=0;bottom=0;right=0;" parent="rV2XExk1Q2oEf46ezu_Y-8" vertex="1">
          <mxGeometry width="30" height="30" as="geometry">
            <mxRectangle width="30" height="30" as="alternateBounds" />
          </mxGeometry>
        </mxCell>
        <mxCell id="rV2XExk1Q2oEf46ezu_Y-10" value="first_name" style="shape=partialRectangle;overflow=hidden;connectable=0;fillColor=none;top=0;left=0;bottom=0;right=0;align=left;spacingLeft=6;" parent="rV2XExk1Q2oEf46ezu_Y-8" vertex="1">
          <mxGeometry x="30" width="130" height="30" as="geometry">
            <mxRectangle width="130" height="30" as="alternateBounds" />
          </mxGeometry>
        </mxCell>
        <mxCell id="rV2XExk1Q2oEf46ezu_Y-11" value="varcar(20)" style="shape=partialRectangle;overflow=hidden;connectable=0;fillColor=none;top=0;left=0;bottom=0;right=0;align=left;spacingLeft=6;" parent="rV2XExk1Q2oEf46ezu_Y-8" vertex="1">
          <mxGeometry x="160" width="120" height="30" as="geometry">
            <mxRectangle width="120" height="30" as="alternateBounds" />
          </mxGeometry>
        </mxCell>
        <mxCell id="rV2XExk1Q2oEf46ezu_Y-16" style="shape=partialRectangle;collapsible=0;dropTarget=0;pointerEvents=0;fillColor=none;points=[[0,0.5],[1,0.5]];portConstraint=eastwest;top=0;left=0;right=0;bottom=0;" parent="rV2XExk1Q2oEf46ezu_Y-3" vertex="1">
          <mxGeometry y="120" width="280" height="30" as="geometry" />
        </mxCell>
        <mxCell id="rV2XExk1Q2oEf46ezu_Y-17" style="shape=partialRectangle;overflow=hidden;connectable=0;fillColor=none;top=0;left=0;bottom=0;right=0;" parent="rV2XExk1Q2oEf46ezu_Y-16" vertex="1">
          <mxGeometry width="30" height="30" as="geometry">
            <mxRectangle width="30" height="30" as="alternateBounds" />
          </mxGeometry>
        </mxCell>
        <mxCell id="rV2XExk1Q2oEf46ezu_Y-18" value="last_name " style="shape=partialRectangle;overflow=hidden;connectable=0;fillColor=none;top=0;left=0;bottom=0;right=0;align=left;spacingLeft=6;" parent="rV2XExk1Q2oEf46ezu_Y-16" vertex="1">
          <mxGeometry x="30" width="130" height="30" as="geometry">
            <mxRectangle width="130" height="30" as="alternateBounds" />
          </mxGeometry>
        </mxCell>
        <mxCell id="rV2XExk1Q2oEf46ezu_Y-19" value="varcar(30)" style="shape=partialRectangle;overflow=hidden;connectable=0;fillColor=none;top=0;left=0;bottom=0;right=0;align=left;spacingLeft=6;" parent="rV2XExk1Q2oEf46ezu_Y-16" vertex="1">
          <mxGeometry x="160" width="120" height="30" as="geometry">
            <mxRectangle width="120" height="30" as="alternateBounds" />
          </mxGeometry>
        </mxCell>
        <mxCell id="rV2XExk1Q2oEf46ezu_Y-20" style="shape=partialRectangle;collapsible=0;dropTarget=0;pointerEvents=0;fillColor=none;points=[[0,0.5],[1,0.5]];portConstraint=eastwest;top=0;left=0;right=0;bottom=0;" parent="rV2XExk1Q2oEf46ezu_Y-3" vertex="1">
          <mxGeometry y="150" width="280" height="30" as="geometry" />
        </mxCell>
        <mxCell id="rV2XExk1Q2oEf46ezu_Y-21" style="shape=partialRectangle;overflow=hidden;connectable=0;fillColor=none;top=0;left=0;bottom=0;right=0;" parent="rV2XExk1Q2oEf46ezu_Y-20" vertex="1">
          <mxGeometry width="30" height="30" as="geometry">
            <mxRectangle width="30" height="30" as="alternateBounds" />
          </mxGeometry>
        </mxCell>
        <mxCell id="rV2XExk1Q2oEf46ezu_Y-22" value="birth_date" style="shape=partialRectangle;overflow=hidden;connectable=0;fillColor=none;top=0;left=0;bottom=0;right=0;align=left;spacingLeft=6;" parent="rV2XExk1Q2oEf46ezu_Y-20" vertex="1">
          <mxGeometry x="30" width="130" height="30" as="geometry">
            <mxRectangle width="130" height="30" as="alternateBounds" />
          </mxGeometry>
        </mxCell>
        <mxCell id="rV2XExk1Q2oEf46ezu_Y-23" value="date" style="shape=partialRectangle;overflow=hidden;connectable=0;fillColor=none;top=0;left=0;bottom=0;right=0;align=left;spacingLeft=6;" parent="rV2XExk1Q2oEf46ezu_Y-20" vertex="1">
          <mxGeometry x="160" width="120" height="30" as="geometry">
            <mxRectangle width="120" height="30" as="alternateBounds" />
          </mxGeometry>
        </mxCell>
        <mxCell id="rV2XExk1Q2oEf46ezu_Y-24" style="shape=partialRectangle;collapsible=0;dropTarget=0;pointerEvents=0;fillColor=none;points=[[0,0.5],[1,0.5]];portConstraint=eastwest;top=0;left=0;right=0;bottom=0;" parent="rV2XExk1Q2oEf46ezu_Y-3" vertex="1">
          <mxGeometry y="180" width="280" height="30" as="geometry" />
        </mxCell>
        <mxCell id="rV2XExk1Q2oEf46ezu_Y-25" style="shape=partialRectangle;overflow=hidden;connectable=0;fillColor=none;top=0;left=0;bottom=0;right=0;" parent="rV2XExk1Q2oEf46ezu_Y-24" vertex="1">
          <mxGeometry width="30" height="30" as="geometry">
            <mxRectangle width="30" height="30" as="alternateBounds" />
          </mxGeometry>
        </mxCell>
        <mxCell id="rV2XExk1Q2oEf46ezu_Y-26" value="hire_date" style="shape=partialRectangle;overflow=hidden;connectable=0;fillColor=none;top=0;left=0;bottom=0;right=0;align=left;spacingLeft=6;" parent="rV2XExk1Q2oEf46ezu_Y-24" vertex="1">
          <mxGeometry x="30" width="130" height="30" as="geometry">
            <mxRectangle width="130" height="30" as="alternateBounds" />
          </mxGeometry>
        </mxCell>
        <mxCell id="rV2XExk1Q2oEf46ezu_Y-27" value="date" style="shape=partialRectangle;overflow=hidden;connectable=0;fillColor=none;top=0;left=0;bottom=0;right=0;align=left;spacingLeft=6;" parent="rV2XExk1Q2oEf46ezu_Y-24" vertex="1">
          <mxGeometry x="160" width="120" height="30" as="geometry">
            <mxRectangle width="120" height="30" as="alternateBounds" />
          </mxGeometry>
        </mxCell>
        <mxCell id="rV2XExk1Q2oEf46ezu_Y-28" value="project" style="shape=table;startSize=30;container=1;collapsible=1;childLayout=tableLayout;fixedRows=1;rowLines=0;fontStyle=1;align=center;resizeLast=1;fillColor=#e1d5e7;strokeColor=#9673a6;" parent="1" vertex="1">
          <mxGeometry x="800" y="80" width="280" height="160" as="geometry" />
        </mxCell>
        <mxCell id="rV2XExk1Q2oEf46ezu_Y-29" value="" style="shape=partialRectangle;collapsible=0;dropTarget=0;pointerEvents=0;fillColor=none;points=[[0,0.5],[1,0.5]];portConstraint=eastwest;top=0;left=0;right=0;bottom=1;" parent="rV2XExk1Q2oEf46ezu_Y-28" vertex="1">
          <mxGeometry y="30" width="280" height="30" as="geometry" />
        </mxCell>
        <mxCell id="rV2XExk1Q2oEf46ezu_Y-30" value="PK" style="shape=partialRectangle;overflow=hidden;connectable=0;fillColor=#e1d5e7;top=0;left=0;bottom=0;right=0;fontStyle=1;strokeColor=#9673a6;" parent="rV2XExk1Q2oEf46ezu_Y-29" vertex="1">
          <mxGeometry width="30" height="30" as="geometry">
            <mxRectangle width="30" height="30" as="alternateBounds" />
          </mxGeometry>
        </mxCell>
        <mxCell id="rV2XExk1Q2oEf46ezu_Y-31" value="project_id" style="shape=partialRectangle;overflow=hidden;connectable=0;fillColor=#e1d5e7;top=0;left=0;bottom=0;right=0;align=left;spacingLeft=6;fontStyle=1;strokeColor=#9673a6;" parent="rV2XExk1Q2oEf46ezu_Y-29" vertex="1">
          <mxGeometry x="30" width="130" height="30" as="geometry">
            <mxRectangle width="130" height="30" as="alternateBounds" />
          </mxGeometry>
        </mxCell>
        <mxCell id="rV2XExk1Q2oEf46ezu_Y-32" value="int" style="shape=partialRectangle;overflow=hidden;connectable=0;fillColor=#e1d5e7;top=0;left=0;bottom=0;right=0;align=left;spacingLeft=6;fontStyle=0;strokeColor=#9673a6;" parent="rV2XExk1Q2oEf46ezu_Y-29" vertex="1">
          <mxGeometry x="160" width="120" height="30" as="geometry">
            <mxRectangle width="120" height="30" as="alternateBounds" />
          </mxGeometry>
        </mxCell>
        <mxCell id="rV2XExk1Q2oEf46ezu_Y-37" value="" style="shape=partialRectangle;collapsible=0;dropTarget=0;pointerEvents=0;fillColor=none;points=[[0,0.5],[1,0.5]];portConstraint=eastwest;top=0;left=0;right=0;bottom=0;" parent="rV2XExk1Q2oEf46ezu_Y-28" vertex="1">
          <mxGeometry y="60" width="280" height="30" as="geometry" />
        </mxCell>
        <mxCell id="rV2XExk1Q2oEf46ezu_Y-38" value="" style="shape=partialRectangle;overflow=hidden;connectable=0;fillColor=none;top=0;left=0;bottom=0;right=0;" parent="rV2XExk1Q2oEf46ezu_Y-37" vertex="1">
          <mxGeometry width="30" height="30" as="geometry">
            <mxRectangle width="30" height="30" as="alternateBounds" />
          </mxGeometry>
        </mxCell>
        <mxCell id="rV2XExk1Q2oEf46ezu_Y-39" value="name" style="shape=partialRectangle;overflow=hidden;connectable=0;fillColor=none;top=0;left=0;bottom=0;right=0;align=left;spacingLeft=6;" parent="rV2XExk1Q2oEf46ezu_Y-37" vertex="1">
          <mxGeometry x="30" width="130" height="30" as="geometry">
            <mxRectangle width="130" height="30" as="alternateBounds" />
          </mxGeometry>
        </mxCell>
        <mxCell id="rV2XExk1Q2oEf46ezu_Y-40" value="varcar(40)" style="shape=partialRectangle;overflow=hidden;connectable=0;fillColor=none;top=0;left=0;bottom=0;right=0;align=left;spacingLeft=6;" parent="rV2XExk1Q2oEf46ezu_Y-37" vertex="1">
          <mxGeometry x="160" width="120" height="30" as="geometry">
            <mxRectangle width="120" height="30" as="alternateBounds" />
          </mxGeometry>
        </mxCell>
        <mxCell id="rV2XExk1Q2oEf46ezu_Y-41" style="shape=partialRectangle;collapsible=0;dropTarget=0;pointerEvents=0;fillColor=none;points=[[0,0.5],[1,0.5]];portConstraint=eastwest;top=0;left=0;right=0;bottom=0;" parent="rV2XExk1Q2oEf46ezu_Y-28" vertex="1">
          <mxGeometry y="90" width="280" height="30" as="geometry" />
        </mxCell>
        <mxCell id="rV2XExk1Q2oEf46ezu_Y-42" style="shape=partialRectangle;overflow=hidden;connectable=0;fillColor=none;top=0;left=0;bottom=0;right=0;" parent="rV2XExk1Q2oEf46ezu_Y-41" vertex="1">
          <mxGeometry width="30" height="30" as="geometry">
            <mxRectangle width="30" height="30" as="alternateBounds" />
          </mxGeometry>
        </mxCell>
        <mxCell id="rV2XExk1Q2oEf46ezu_Y-43" value="from_date" style="shape=partialRectangle;overflow=hidden;connectable=0;fillColor=none;top=0;left=0;bottom=0;right=0;align=left;spacingLeft=6;" parent="rV2XExk1Q2oEf46ezu_Y-41" vertex="1">
          <mxGeometry x="30" width="130" height="30" as="geometry">
            <mxRectangle width="130" height="30" as="alternateBounds" />
          </mxGeometry>
        </mxCell>
        <mxCell id="rV2XExk1Q2oEf46ezu_Y-44" value="date" style="shape=partialRectangle;overflow=hidden;connectable=0;fillColor=none;top=0;left=0;bottom=0;right=0;align=left;spacingLeft=6;" parent="rV2XExk1Q2oEf46ezu_Y-41" vertex="1">
          <mxGeometry x="160" width="120" height="30" as="geometry">
            <mxRectangle width="120" height="30" as="alternateBounds" />
          </mxGeometry>
        </mxCell>
        <mxCell id="rV2XExk1Q2oEf46ezu_Y-45" style="shape=partialRectangle;collapsible=0;dropTarget=0;pointerEvents=0;fillColor=none;points=[[0,0.5],[1,0.5]];portConstraint=eastwest;top=0;left=0;right=0;bottom=0;" parent="rV2XExk1Q2oEf46ezu_Y-28" vertex="1">
          <mxGeometry y="120" width="280" height="30" as="geometry" />
        </mxCell>
        <mxCell id="rV2XExk1Q2oEf46ezu_Y-46" style="shape=partialRectangle;overflow=hidden;connectable=0;fillColor=none;top=0;left=0;bottom=0;right=0;" parent="rV2XExk1Q2oEf46ezu_Y-45" vertex="1">
          <mxGeometry width="30" height="30" as="geometry">
            <mxRectangle width="30" height="30" as="alternateBounds" />
          </mxGeometry>
        </mxCell>
        <mxCell id="rV2XExk1Q2oEf46ezu_Y-47" value="to_date" style="shape=partialRectangle;overflow=hidden;connectable=0;fillColor=none;top=0;left=0;bottom=0;right=0;align=left;spacingLeft=6;" parent="rV2XExk1Q2oEf46ezu_Y-45" vertex="1">
          <mxGeometry x="30" width="130" height="30" as="geometry">
            <mxRectangle width="130" height="30" as="alternateBounds" />
          </mxGeometry>
        </mxCell>
        <mxCell id="rV2XExk1Q2oEf46ezu_Y-48" value="date" style="shape=partialRectangle;overflow=hidden;connectable=0;fillColor=none;top=0;left=0;bottom=0;right=0;align=left;spacingLeft=6;" parent="rV2XExk1Q2oEf46ezu_Y-45" vertex="1">
          <mxGeometry x="160" width="120" height="30" as="geometry">
            <mxRectangle width="120" height="30" as="alternateBounds" />
          </mxGeometry>
        </mxCell>
        <mxCell id="rV2XExk1Q2oEf46ezu_Y-53" value="project_employee" style="shape=table;startSize=30;container=1;collapsible=1;childLayout=tableLayout;fixedRows=1;rowLines=0;fontStyle=1;align=center;resizeLast=1;" parent="1" vertex="1">
          <mxGeometry x="440" y="80" width="280" height="100" as="geometry" />
        </mxCell>
        <mxCell id="rV2XExk1Q2oEf46ezu_Y-54" value="" style="shape=partialRectangle;collapsible=0;dropTarget=0;pointerEvents=0;fillColor=none;points=[[0,0.5],[1,0.5]];portConstraint=eastwest;top=0;left=0;right=0;bottom=1;" parent="rV2XExk1Q2oEf46ezu_Y-53" vertex="1">
          <mxGeometry y="30" width="280" height="30" as="geometry" />
        </mxCell>
        <mxCell id="rV2XExk1Q2oEf46ezu_Y-55" value="PK, FK" style="shape=partialRectangle;overflow=hidden;connectable=0;fillColor=#e1d5e7;top=0;left=0;bottom=0;right=0;fontStyle=1;strokeColor=#9673a6;" parent="rV2XExk1Q2oEf46ezu_Y-54" vertex="1">
          <mxGeometry width="60" height="30" as="geometry">
            <mxRectangle width="60" height="30" as="alternateBounds" />
          </mxGeometry>
        </mxCell>
        <mxCell id="rV2XExk1Q2oEf46ezu_Y-56" value="project_id" style="shape=partialRectangle;overflow=hidden;connectable=0;fillColor=#e1d5e7;top=0;left=0;bottom=0;right=0;align=left;spacingLeft=6;fontStyle=1;strokeColor=#9673a6;" parent="rV2XExk1Q2oEf46ezu_Y-54" vertex="1">
          <mxGeometry x="60" width="100" height="30" as="geometry">
            <mxRectangle width="100" height="30" as="alternateBounds" />
          </mxGeometry>
        </mxCell>
        <mxCell id="rV2XExk1Q2oEf46ezu_Y-57" value="int" style="shape=partialRectangle;overflow=hidden;connectable=0;fillColor=#e1d5e7;top=0;left=0;bottom=0;right=0;align=left;spacingLeft=6;fontStyle=0;strokeColor=#9673a6;" parent="rV2XExk1Q2oEf46ezu_Y-54" vertex="1">
          <mxGeometry x="160" width="120" height="30" as="geometry">
            <mxRectangle width="120" height="30" as="alternateBounds" />
          </mxGeometry>
        </mxCell>
        <mxCell id="rV2XExk1Q2oEf46ezu_Y-70" style="shape=partialRectangle;collapsible=0;dropTarget=0;pointerEvents=0;fillColor=none;points=[[0,0.5],[1,0.5]];portConstraint=eastwest;top=0;left=0;right=0;bottom=1;" parent="rV2XExk1Q2oEf46ezu_Y-53" vertex="1">
          <mxGeometry y="60" width="280" height="30" as="geometry" />
        </mxCell>
        <mxCell id="rV2XExk1Q2oEf46ezu_Y-71" value="PK, FK" style="shape=partialRectangle;overflow=hidden;connectable=0;fillColor=#dae8fc;top=0;left=0;bottom=0;right=0;fontStyle=1;strokeColor=#6c8ebf;" parent="rV2XExk1Q2oEf46ezu_Y-70" vertex="1">
          <mxGeometry width="60" height="30" as="geometry">
            <mxRectangle width="60" height="30" as="alternateBounds" />
          </mxGeometry>
        </mxCell>
        <mxCell id="rV2XExk1Q2oEf46ezu_Y-72" value="employee_id" style="shape=partialRectangle;overflow=hidden;connectable=0;fillColor=#dae8fc;top=0;left=0;bottom=0;right=0;align=left;spacingLeft=6;fontStyle=1;strokeColor=#6c8ebf;" parent="rV2XExk1Q2oEf46ezu_Y-70" vertex="1">
          <mxGeometry x="60" width="100" height="30" as="geometry">
            <mxRectangle width="100" height="30" as="alternateBounds" />
          </mxGeometry>
        </mxCell>
        <mxCell id="rV2XExk1Q2oEf46ezu_Y-73" value="int" style="shape=partialRectangle;overflow=hidden;connectable=0;fillColor=#dae8fc;top=0;left=0;bottom=0;right=0;align=left;spacingLeft=6;fontStyle=0;strokeColor=#6c8ebf;" parent="rV2XExk1Q2oEf46ezu_Y-70" vertex="1">
          <mxGeometry x="160" width="120" height="30" as="geometry">
            <mxRectangle width="120" height="30" as="alternateBounds" />
          </mxGeometry>
        </mxCell>
        <mxCell id="rV2XExk1Q2oEf46ezu_Y-74" value="" style="edgeStyle=entityRelationEdgeStyle;fontSize=12;html=1;endArrow=ERoneToMany;rounded=0;exitX=1;exitY=0.5;exitDx=0;exitDy=0;strokeWidth=2;fillColor=#dae8fc;strokeColor=#6c8ebf;" parent="1" source="rV2XExk1Q2oEf46ezu_Y-4" target="rV2XExk1Q2oEf46ezu_Y-70" edge="1">
          <mxGeometry width="100" height="100" relative="1" as="geometry">
            <mxPoint x="540" y="460" as="sourcePoint" />
            <mxPoint x="640" y="360" as="targetPoint" />
          </mxGeometry>
        </mxCell>
        <mxCell id="rV2XExk1Q2oEf46ezu_Y-75" value="" style="edgeStyle=entityRelationEdgeStyle;fontSize=12;html=1;endArrow=ERoneToMany;rounded=0;strokeWidth=2;fillColor=#d5e8d4;strokeColor=#82b366;" parent="1" source="C-vyLk0tnHw3VtMMgP7b-24" target="rV2XExk1Q2oEf46ezu_Y-12" edge="1">
          <mxGeometry width="100" height="100" relative="1" as="geometry">
            <mxPoint x="540" y="460" as="sourcePoint" />
            <mxPoint x="110" y="330" as="targetPoint" />
          </mxGeometry>
        </mxCell>
        <mxCell id="rV2XExk1Q2oEf46ezu_Y-76" value="" style="edgeStyle=entityRelationEdgeStyle;fontSize=12;html=1;endArrow=ERoneToMany;rounded=0;strokeWidth=2;exitX=0;exitY=0.5;exitDx=0;exitDy=0;fillColor=#e1d5e7;strokeColor=#9673a6;" parent="1" source="rV2XExk1Q2oEf46ezu_Y-29" target="rV2XExk1Q2oEf46ezu_Y-54" edge="1">
          <mxGeometry width="100" height="100" relative="1" as="geometry">
            <mxPoint x="570" y="450" as="sourcePoint" />
            <mxPoint x="670" y="350" as="targetPoint" />
          </mxGeometry>
        </mxCell>
        <mxCell id="Ax111_rweqNNeoBqDBcI-1" value="project" style="shape=table;startSize=30;container=1;collapsible=1;childLayout=tableLayout;fixedRows=1;rowLines=0;fontStyle=1;align=center;resizeLast=1;fillColor=#e1d5e7;strokeColor=#9673a6;" vertex="1" parent="1">
          <mxGeometry x="747" y="516" width="280" height="160" as="geometry" />
        </mxCell>
        <mxCell id="Ax111_rweqNNeoBqDBcI-2" value="" style="shape=partialRectangle;collapsible=0;dropTarget=0;pointerEvents=0;fillColor=none;points=[[0,0.5],[1,0.5]];portConstraint=eastwest;top=0;left=0;right=0;bottom=1;" vertex="1" parent="Ax111_rweqNNeoBqDBcI-1">
          <mxGeometry y="30" width="280" height="30" as="geometry" />
        </mxCell>
        <mxCell id="Ax111_rweqNNeoBqDBcI-3" value="PK" style="shape=partialRectangle;overflow=hidden;connectable=0;fillColor=#e1d5e7;top=0;left=0;bottom=0;right=0;fontStyle=1;strokeColor=#9673a6;" vertex="1" parent="Ax111_rweqNNeoBqDBcI-2">
          <mxGeometry width="30" height="30" as="geometry">
            <mxRectangle width="30" height="30" as="alternateBounds" />
          </mxGeometry>
        </mxCell>
        <mxCell id="Ax111_rweqNNeoBqDBcI-4" value="project_id" style="shape=partialRectangle;overflow=hidden;connectable=0;fillColor=#e1d5e7;top=0;left=0;bottom=0;right=0;align=left;spacingLeft=6;fontStyle=1;strokeColor=#9673a6;" vertex="1" parent="Ax111_rweqNNeoBqDBcI-2">
          <mxGeometry x="30" width="130" height="30" as="geometry">
            <mxRectangle width="130" height="30" as="alternateBounds" />
          </mxGeometry>
        </mxCell>
        <mxCell id="Ax111_rweqNNeoBqDBcI-5" value="int" style="shape=partialRectangle;overflow=hidden;connectable=0;fillColor=#e1d5e7;top=0;left=0;bottom=0;right=0;align=left;spacingLeft=6;fontStyle=0;strokeColor=#9673a6;" vertex="1" parent="Ax111_rweqNNeoBqDBcI-2">
          <mxGeometry x="160" width="120" height="30" as="geometry">
            <mxRectangle width="120" height="30" as="alternateBounds" />
          </mxGeometry>
        </mxCell>
        <mxCell id="Ax111_rweqNNeoBqDBcI-6" value="" style="shape=partialRectangle;collapsible=0;dropTarget=0;pointerEvents=0;fillColor=none;points=[[0,0.5],[1,0.5]];portConstraint=eastwest;top=0;left=0;right=0;bottom=0;" vertex="1" parent="Ax111_rweqNNeoBqDBcI-1">
          <mxGeometry y="60" width="280" height="30" as="geometry" />
        </mxCell>
        <mxCell id="Ax111_rweqNNeoBqDBcI-7" value="" style="shape=partialRectangle;overflow=hidden;connectable=0;fillColor=none;top=0;left=0;bottom=0;right=0;" vertex="1" parent="Ax111_rweqNNeoBqDBcI-6">
          <mxGeometry width="30" height="30" as="geometry">
            <mxRectangle width="30" height="30" as="alternateBounds" />
          </mxGeometry>
        </mxCell>
        <mxCell id="Ax111_rweqNNeoBqDBcI-8" value="name" style="shape=partialRectangle;overflow=hidden;connectable=0;fillColor=none;top=0;left=0;bottom=0;right=0;align=left;spacingLeft=6;" vertex="1" parent="Ax111_rweqNNeoBqDBcI-6">
          <mxGeometry x="30" width="130" height="30" as="geometry">
            <mxRectangle width="130" height="30" as="alternateBounds" />
          </mxGeometry>
        </mxCell>
        <mxCell id="Ax111_rweqNNeoBqDBcI-9" value="varcar(40)" style="shape=partialRectangle;overflow=hidden;connectable=0;fillColor=none;top=0;left=0;bottom=0;right=0;align=left;spacingLeft=6;" vertex="1" parent="Ax111_rweqNNeoBqDBcI-6">
          <mxGeometry x="160" width="120" height="30" as="geometry">
            <mxRectangle width="120" height="30" as="alternateBounds" />
          </mxGeometry>
        </mxCell>
        <mxCell id="Ax111_rweqNNeoBqDBcI-10" style="shape=partialRectangle;collapsible=0;dropTarget=0;pointerEvents=0;fillColor=none;points=[[0,0.5],[1,0.5]];portConstraint=eastwest;top=0;left=0;right=0;bottom=0;" vertex="1" parent="Ax111_rweqNNeoBqDBcI-1">
          <mxGeometry y="90" width="280" height="30" as="geometry" />
        </mxCell>
        <mxCell id="Ax111_rweqNNeoBqDBcI-11" style="shape=partialRectangle;overflow=hidden;connectable=0;fillColor=none;top=0;left=0;bottom=0;right=0;" vertex="1" parent="Ax111_rweqNNeoBqDBcI-10">
          <mxGeometry width="30" height="30" as="geometry">
            <mxRectangle width="30" height="30" as="alternateBounds" />
          </mxGeometry>
        </mxCell>
        <mxCell id="Ax111_rweqNNeoBqDBcI-12" value="from_date" style="shape=partialRectangle;overflow=hidden;connectable=0;fillColor=none;top=0;left=0;bottom=0;right=0;align=left;spacingLeft=6;" vertex="1" parent="Ax111_rweqNNeoBqDBcI-10">
          <mxGeometry x="30" width="130" height="30" as="geometry">
            <mxRectangle width="130" height="30" as="alternateBounds" />
          </mxGeometry>
        </mxCell>
        <mxCell id="Ax111_rweqNNeoBqDBcI-13" value="date" style="shape=partialRectangle;overflow=hidden;connectable=0;fillColor=none;top=0;left=0;bottom=0;right=0;align=left;spacingLeft=6;" vertex="1" parent="Ax111_rweqNNeoBqDBcI-10">
          <mxGeometry x="160" width="120" height="30" as="geometry">
            <mxRectangle width="120" height="30" as="alternateBounds" />
          </mxGeometry>
        </mxCell>
        <mxCell id="Ax111_rweqNNeoBqDBcI-14" style="shape=partialRectangle;collapsible=0;dropTarget=0;pointerEvents=0;fillColor=none;points=[[0,0.5],[1,0.5]];portConstraint=eastwest;top=0;left=0;right=0;bottom=0;" vertex="1" parent="Ax111_rweqNNeoBqDBcI-1">
          <mxGeometry y="120" width="280" height="30" as="geometry" />
        </mxCell>
        <mxCell id="Ax111_rweqNNeoBqDBcI-15" style="shape=partialRectangle;overflow=hidden;connectable=0;fillColor=none;top=0;left=0;bottom=0;right=0;" vertex="1" parent="Ax111_rweqNNeoBqDBcI-14">
          <mxGeometry width="30" height="30" as="geometry">
            <mxRectangle width="30" height="30" as="alternateBounds" />
          </mxGeometry>
        </mxCell>
        <mxCell id="Ax111_rweqNNeoBqDBcI-16" value="to_date" style="shape=partialRectangle;overflow=hidden;connectable=0;fillColor=none;top=0;left=0;bottom=0;right=0;align=left;spacingLeft=6;" vertex="1" parent="Ax111_rweqNNeoBqDBcI-14">
          <mxGeometry x="30" width="130" height="30" as="geometry">
            <mxRectangle width="130" height="30" as="alternateBounds" />
          </mxGeometry>
        </mxCell>
        <mxCell id="Ax111_rweqNNeoBqDBcI-17" value="date" style="shape=partialRectangle;overflow=hidden;connectable=0;fillColor=none;top=0;left=0;bottom=0;right=0;align=left;spacingLeft=6;" vertex="1" parent="Ax111_rweqNNeoBqDBcI-14">
          <mxGeometry x="160" width="120" height="30" as="geometry">
            <mxRectangle width="120" height="30" as="alternateBounds" />
          </mxGeometry>
        </mxCell>
      </root>
    </mxGraphModel>
  </diagram>
</mxfile>
